<mxfile host="app.diagrams.net" modified="2024-05-07T02:28:33.257Z" agent="Mozilla/5.0 (Macintosh; Intel Mac OS X 10_15_7) AppleWebKit/537.36 (KHTML, like Gecko) Chrome/124.0.0.0 Safari/537.36" etag="bx_AuVkE81qdRjTDq-32" version="24.3.0" type="device">
  <diagram id="H-b6z1kPTGAqEft5Mhqe" name="Page-1">
    <mxGraphModel dx="965" dy="561" grid="1" gridSize="10" guides="1" tooltips="1" connect="1" arrows="1" fold="1" page="1" pageScale="1" pageWidth="850" pageHeight="1100" math="0" shadow="0">
      <root>
        <mxCell id="0" />
        <mxCell id="1" parent="0" />
        <mxCell id="2AMq9eH3SmiAwRvJInFM-2" value="" style="rounded=1;whiteSpace=wrap;html=1;fillColor=#e1d5e7;strokeColor=#9673a6;" vertex="1" parent="1">
          <mxGeometry x="210" y="450" width="210" height="110" as="geometry" />
        </mxCell>
        <mxCell id="6_OCP7WA7obt4g_-aj3v-1" value="&lt;font style=&quot;font-size: 14px;&quot;&gt;AWS&lt;br&gt;&lt;/font&gt;" style="points=[[0,0],[0.25,0],[0.5,0],[0.75,0],[1,0],[1,0.25],[1,0.5],[1,0.75],[1,1],[0.75,1],[0.5,1],[0.25,1],[0,1],[0,0.75],[0,0.5],[0,0.25]];outlineConnect=0;html=1;whiteSpace=wrap;fontSize=12;fontStyle=0;container=1;pointerEvents=0;collapsible=0;recursiveResize=0;shape=mxgraph.aws4.group;grIcon=mxgraph.aws4.group_aws_cloud_alt;strokeColor=#d6b656;fillColor=#fff2cc;verticalAlign=top;align=left;spacingLeft=30;dashed=0;" parent="1" vertex="1">
          <mxGeometry x="120" y="40" width="450" height="400" as="geometry" />
        </mxCell>
        <mxCell id="6_OCP7WA7obt4g_-aj3v-12" value="" style="rounded=1;whiteSpace=wrap;html=1;fillColor=#d5e8d4;strokeColor=#82b366;" parent="6_OCP7WA7obt4g_-aj3v-1" vertex="1">
          <mxGeometry x="20" y="250" width="250" height="137.5" as="geometry" />
        </mxCell>
        <mxCell id="6_OCP7WA7obt4g_-aj3v-13" value="Lambda&lt;div&gt;(Stock Prices)&lt;/div&gt;" style="text;html=1;strokeColor=none;fillColor=none;align=center;verticalAlign=middle;whiteSpace=wrap;rounded=0;fontSize=16;fontStyle=1" parent="6_OCP7WA7obt4g_-aj3v-1" vertex="1">
          <mxGeometry x="136.5" y="255.57" width="117" height="37.43" as="geometry" />
        </mxCell>
        <mxCell id="6_OCP7WA7obt4g_-aj3v-31" value="" style="sketch=0;points=[[0,0,0],[0.25,0,0],[0.5,0,0],[0.75,0,0],[1,0,0],[0,1,0],[0.25,1,0],[0.5,1,0],[0.75,1,0],[1,1,0],[0,0.25,0],[0,0.5,0],[0,0.75,0],[1,0.25,0],[1,0.5,0],[1,0.75,0]];outlineConnect=0;fontColor=#232F3E;fillColor=#ED7100;strokeColor=#ffffff;dashed=0;verticalLabelPosition=bottom;verticalAlign=top;align=center;html=1;fontSize=12;fontStyle=0;aspect=fixed;shape=mxgraph.aws4.resourceIcon;resIcon=mxgraph.aws4.lambda;" parent="6_OCP7WA7obt4g_-aj3v-1" vertex="1">
          <mxGeometry x="156" y="294.57" width="78" height="78" as="geometry" />
        </mxCell>
        <mxCell id="6_OCP7WA7obt4g_-aj3v-32" value="" style="rounded=1;whiteSpace=wrap;html=1;fillColor=#dae8fc;strokeColor=#6c8ebf;" parent="6_OCP7WA7obt4g_-aj3v-1" vertex="1">
          <mxGeometry x="20" y="39" width="250" height="140" as="geometry" />
        </mxCell>
        <mxCell id="6_OCP7WA7obt4g_-aj3v-33" value="Lambda&lt;div&gt;(Get Stock Prices)&lt;/div&gt;" style="text;html=1;strokeColor=none;fillColor=none;align=center;verticalAlign=middle;whiteSpace=wrap;rounded=0;fontSize=16;fontStyle=1" parent="6_OCP7WA7obt4g_-aj3v-1" vertex="1">
          <mxGeometry x="119" y="44.57" width="147" height="40" as="geometry" />
        </mxCell>
        <mxCell id="6_OCP7WA7obt4g_-aj3v-34" value="" style="sketch=0;points=[[0,0,0],[0.25,0,0],[0.5,0,0],[0.75,0,0],[1,0,0],[0,1,0],[0.25,1,0],[0.5,1,0],[0.75,1,0],[1,1,0],[0,0.25,0],[0,0.5,0],[0,0.75,0],[1,0.25,0],[1,0.5,0],[1,0.75,0]];outlineConnect=0;fontColor=#232F3E;fillColor=#ED7100;strokeColor=#ffffff;dashed=0;verticalLabelPosition=bottom;verticalAlign=top;align=center;html=1;fontSize=12;fontStyle=0;aspect=fixed;shape=mxgraph.aws4.resourceIcon;resIcon=mxgraph.aws4.lambda;" parent="6_OCP7WA7obt4g_-aj3v-1" vertex="1">
          <mxGeometry x="162" y="84.57" width="78" height="78" as="geometry" />
        </mxCell>
        <mxCell id="6_OCP7WA7obt4g_-aj3v-35" value="" style="outlineConnect=0;dashed=0;verticalLabelPosition=bottom;verticalAlign=top;align=center;html=1;shape=mxgraph.aws3.dynamo_db;fillColor=#2E73B8;gradientColor=none;" parent="6_OCP7WA7obt4g_-aj3v-1" vertex="1">
          <mxGeometry x="349" y="169" width="72" height="81" as="geometry" />
        </mxCell>
        <mxCell id="6_OCP7WA7obt4g_-aj3v-36" value="DynamoDB&lt;div&gt;(Stocks)&lt;/div&gt;" style="text;html=1;strokeColor=none;fillColor=none;align=center;verticalAlign=middle;whiteSpace=wrap;rounded=0;fontSize=16;fontStyle=1" parent="6_OCP7WA7obt4g_-aj3v-1" vertex="1">
          <mxGeometry x="337" y="123" width="97" height="50" as="geometry" />
        </mxCell>
        <mxCell id="6_OCP7WA7obt4g_-aj3v-37" style="edgeStyle=orthogonalEdgeStyle;rounded=0;orthogonalLoop=1;jettySize=auto;html=1;exitX=1;exitY=0.5;exitDx=0;exitDy=0;entryX=0;entryY=0.22;entryDx=0;entryDy=0;entryPerimeter=0;startArrow=classic;startFill=1;endArrow=none;endFill=0;exitPerimeter=0;" parent="6_OCP7WA7obt4g_-aj3v-1" source="6_OCP7WA7obt4g_-aj3v-34" target="6_OCP7WA7obt4g_-aj3v-35" edge="1">
          <mxGeometry relative="1" as="geometry" />
        </mxCell>
        <mxCell id="6_OCP7WA7obt4g_-aj3v-38" style="edgeStyle=orthogonalEdgeStyle;rounded=0;orthogonalLoop=1;jettySize=auto;html=1;exitX=1;exitY=0.5;exitDx=0;exitDy=0;entryX=0;entryY=0.78;entryDx=0;entryDy=0;entryPerimeter=0;exitPerimeter=0;" parent="6_OCP7WA7obt4g_-aj3v-1" source="6_OCP7WA7obt4g_-aj3v-31" target="6_OCP7WA7obt4g_-aj3v-35" edge="1">
          <mxGeometry relative="1" as="geometry" />
        </mxCell>
        <mxCell id="6_OCP7WA7obt4g_-aj3v-39" value="" style="sketch=0;points=[[0,0,0],[0.25,0,0],[0.5,0,0],[0.75,0,0],[1,0,0],[0,1,0],[0.25,1,0],[0.5,1,0],[0.75,1,0],[1,1,0],[0,0.25,0],[0,0.5,0],[0,0.75,0],[1,0.25,0],[1,0.5,0],[1,0.75,0]];outlineConnect=0;fontColor=#232F3E;fillColor=#E7157B;strokeColor=#ffffff;dashed=0;verticalLabelPosition=bottom;verticalAlign=top;align=center;html=1;fontSize=12;fontStyle=0;aspect=fixed;shape=mxgraph.aws4.resourceIcon;resIcon=mxgraph.aws4.eventbridge;" parent="6_OCP7WA7obt4g_-aj3v-1" vertex="1">
          <mxGeometry x="41" y="294.57" width="78" height="78" as="geometry" />
        </mxCell>
        <mxCell id="6_OCP7WA7obt4g_-aj3v-43" value="EventBridge Scheduler" style="text;html=1;strokeColor=none;fillColor=none;align=center;verticalAlign=middle;whiteSpace=wrap;rounded=0;fontSize=16;fontStyle=1" parent="6_OCP7WA7obt4g_-aj3v-1" vertex="1">
          <mxGeometry x="23.5" y="255.57" width="113" height="39" as="geometry" />
        </mxCell>
        <mxCell id="6_OCP7WA7obt4g_-aj3v-44" style="edgeStyle=orthogonalEdgeStyle;rounded=0;orthogonalLoop=1;jettySize=auto;html=1;exitX=1;exitY=0.5;exitDx=0;exitDy=0;exitPerimeter=0;entryX=0;entryY=0.5;entryDx=0;entryDy=0;entryPerimeter=0;" parent="6_OCP7WA7obt4g_-aj3v-1" source="6_OCP7WA7obt4g_-aj3v-39" target="6_OCP7WA7obt4g_-aj3v-31" edge="1">
          <mxGeometry relative="1" as="geometry" />
        </mxCell>
        <mxCell id="6_OCP7WA7obt4g_-aj3v-45" value="" style="sketch=0;outlineConnect=0;fontColor=#232F3E;gradientColor=none;fillColor=#7AA116;strokeColor=none;dashed=0;verticalLabelPosition=bottom;verticalAlign=top;align=center;html=1;fontSize=12;fontStyle=0;aspect=fixed;pointerEvents=1;shape=mxgraph.aws4.lambda_function;" parent="6_OCP7WA7obt4g_-aj3v-1" vertex="1">
          <mxGeometry x="41" y="85" width="78" height="78" as="geometry" />
        </mxCell>
        <mxCell id="6_OCP7WA7obt4g_-aj3v-46" value="Function&lt;div&gt;URL&lt;/div&gt;" style="text;html=1;strokeColor=none;fillColor=none;align=center;verticalAlign=middle;whiteSpace=wrap;rounded=0;fontSize=16;fontStyle=1" parent="6_OCP7WA7obt4g_-aj3v-1" vertex="1">
          <mxGeometry x="48.75" y="47.07" width="62.5" height="35" as="geometry" />
        </mxCell>
        <mxCell id="6_OCP7WA7obt4g_-aj3v-48" style="edgeStyle=orthogonalEdgeStyle;rounded=0;orthogonalLoop=1;jettySize=auto;html=1;entryX=0;entryY=0.5;entryDx=0;entryDy=0;entryPerimeter=0;" parent="6_OCP7WA7obt4g_-aj3v-1" source="6_OCP7WA7obt4g_-aj3v-45" target="6_OCP7WA7obt4g_-aj3v-34" edge="1">
          <mxGeometry relative="1" as="geometry" />
        </mxCell>
        <mxCell id="6_OCP7WA7obt4g_-aj3v-49" value="API" style="text;html=1;strokeColor=none;fillColor=none;align=center;verticalAlign=middle;whiteSpace=wrap;rounded=0;fontSize=20;fontStyle=1;fontColor=#0000FF;" parent="6_OCP7WA7obt4g_-aj3v-1" vertex="1">
          <mxGeometry x="120" y="10" width="50" height="29" as="geometry" />
        </mxCell>
        <mxCell id="6_OCP7WA7obt4g_-aj3v-50" value="ETL" style="text;html=1;strokeColor=none;fillColor=none;align=center;verticalAlign=middle;whiteSpace=wrap;rounded=0;fontSize=20;fontStyle=1;fontColor=#0000FF;" parent="6_OCP7WA7obt4g_-aj3v-1" vertex="1">
          <mxGeometry x="120" y="221" width="50" height="29" as="geometry" />
        </mxCell>
        <mxCell id="6_OCP7WA7obt4g_-aj3v-54" value="" style="endArrow=classic;html=1;strokeWidth=2;rounded=0;exitX=1;exitY=0.75;exitDx=0;exitDy=0;exitPerimeter=0;fontColor=#FF0000;strokeColor=#FF0000;entryX=0;entryY=0.5;entryDx=0;entryDy=0;endFill=1;" parent="6_OCP7WA7obt4g_-aj3v-1" source="6_OCP7WA7obt4g_-aj3v-31" target="6_OCP7WA7obt4g_-aj3v-55" edge="1">
          <mxGeometry width="50" height="50" relative="1" as="geometry">
            <mxPoint x="250" y="500" as="sourcePoint" />
            <mxPoint x="295" y="363" as="targetPoint" />
          </mxGeometry>
        </mxCell>
        <mxCell id="6_OCP7WA7obt4g_-aj3v-55" value="Save stock&lt;div&gt;prices periodically&lt;/div&gt;" style="text;html=1;strokeColor=#FF0000;fillColor=none;align=center;verticalAlign=middle;whiteSpace=wrap;rounded=1;fontSize=16;fontStyle=3;fontColor=#FF0000;" parent="6_OCP7WA7obt4g_-aj3v-1" vertex="1">
          <mxGeometry x="305" y="327.5" width="115" height="60" as="geometry" />
        </mxCell>
        <mxCell id="6_OCP7WA7obt4g_-aj3v-57" value="Get stock&lt;div&gt;prices&lt;/div&gt;" style="text;html=1;strokeColor=#FF0000;fillColor=none;align=center;verticalAlign=middle;whiteSpace=wrap;rounded=1;fontSize=16;fontStyle=3;fontColor=#FF0000;" parent="6_OCP7WA7obt4g_-aj3v-1" vertex="1">
          <mxGeometry x="306" y="47.07" width="114" height="49.93" as="geometry" />
        </mxCell>
        <mxCell id="6_OCP7WA7obt4g_-aj3v-56" value="" style="endArrow=classic;html=1;strokeWidth=2;rounded=0;exitX=1;exitY=0.25;exitDx=0;exitDy=0;exitPerimeter=0;fontColor=#FF0000;strokeColor=#FF0000;entryX=0;entryY=0.5;entryDx=0;entryDy=0;endFill=1;" parent="6_OCP7WA7obt4g_-aj3v-1" source="6_OCP7WA7obt4g_-aj3v-34" target="6_OCP7WA7obt4g_-aj3v-57" edge="1">
          <mxGeometry width="50" height="50" relative="1" as="geometry">
            <mxPoint x="470" y="152.93" as="sourcePoint" />
            <mxPoint x="531" y="162.93" as="targetPoint" />
          </mxGeometry>
        </mxCell>
        <mxCell id="6_OCP7WA7obt4g_-aj3v-52" style="edgeStyle=orthogonalEdgeStyle;rounded=0;orthogonalLoop=1;jettySize=auto;html=1;exitX=1;exitY=0.5;exitDx=0;exitDy=0;exitPerimeter=0;" parent="1" source="6_OCP7WA7obt4g_-aj3v-51" target="6_OCP7WA7obt4g_-aj3v-45" edge="1">
          <mxGeometry relative="1" as="geometry" />
        </mxCell>
        <mxCell id="6_OCP7WA7obt4g_-aj3v-51" value="" style="outlineConnect=0;dashed=0;verticalLabelPosition=bottom;verticalAlign=top;align=center;html=1;shape=mxgraph.aws3.users;fillColor=#D2D3D3;gradientColor=none;" parent="1" vertex="1">
          <mxGeometry x="40" y="132.5" width="66" height="63" as="geometry" />
        </mxCell>
        <mxCell id="6_OCP7WA7obt4g_-aj3v-53" value="Clients&lt;div&gt;Users&lt;br&gt;&lt;div&gt;Systems&lt;/div&gt;&lt;/div&gt;" style="text;html=1;strokeColor=none;fillColor=none;align=center;verticalAlign=middle;whiteSpace=wrap;rounded=0;fontSize=16;fontStyle=1" parent="1" vertex="1">
          <mxGeometry x="33" y="200" width="80" height="60" as="geometry" />
        </mxCell>
        <mxCell id="2AMq9eH3SmiAwRvJInFM-1" value="" style="shape=image;verticalLabelPosition=bottom;labelBackgroundColor=default;verticalAlign=top;aspect=fixed;imageAspect=0;image=https://upload.wikimedia.org/wikipedia/commons/8/8f/Yahoo%21_Finance_logo_2021.png;" vertex="1" parent="1">
          <mxGeometry x="220" y="470" width="191.83" height="70.34" as="geometry" />
        </mxCell>
        <mxCell id="2AMq9eH3SmiAwRvJInFM-3" style="edgeStyle=orthogonalEdgeStyle;rounded=0;orthogonalLoop=1;jettySize=auto;html=1;exitX=0.5;exitY=0;exitDx=0;exitDy=0;entryX=0.5;entryY=1;entryDx=0;entryDy=0;entryPerimeter=0;" edge="1" parent="1" source="2AMq9eH3SmiAwRvJInFM-2" target="6_OCP7WA7obt4g_-aj3v-31">
          <mxGeometry relative="1" as="geometry" />
        </mxCell>
      </root>
    </mxGraphModel>
  </diagram>
</mxfile>
